{
  "accessors": [
    {
      "bufferView": 2,
      "componentType": 5126,
      "count": 3140,
      "max": [
        4.876224517822266,
        12.322948455810547,
        4.8356781005859375
      ],
      "min": [
        -4.921620845794678,
        2.5599708557128906,
        -4.962165832519531
      ],
      "type": "VEC3"
    },
    {
      "bufferView": 2,
      "byteOffset": 37680,
      "componentType": 5126,
      "count": 3140,
      "max": [
        0.9936220645904541,
        1.0,
        0.9936221241950989
      ],
      "min": [
        -0.9936220645904541,
        -0.8401955962181091,
        -0.9936220049858093
      ],
      "type": "VEC3"
    },
    {
      "bufferView": 1,
      "componentType": 5126,
      "count": 3140,
      "max": [
        0.9767022132873535,
        0.9771946668624878
      ],
      "min": [
        0.029509127140045166,
        0.017876029014587402
      ],
      "type": "VEC2"
    },
    {
      "bufferView": 0,
      "componentType": 5125,
      "count": 8814,
      "type": "SCALAR"
    },
    {
      "bufferView": 2,
      "byteOffset": 75360,
      "componentType": 5126,
      "count": 1441,
      "max": [
        0.5000001192092896,
        2.5988998413085938,
        0.6267929077148438
      ],
      "min": [
        -0.5000001192092896,
        0.13878631591796875,
        -0.5943374633789063
      ],
      "type": "VEC3"
    },
    {
      "bufferView": 2,
      "byteOffset": 92652,
      "componentType": 5126,
      "count": 1441,
      "max": [
        1.0,
        0.999406635761261,
        1.0
      ],
      "min": [
        -1.0,
        -0.9997044205665588,
        -1.0
      ],
      "type": "VEC3"
    },
    {
      "bufferView": 1,
      "byteOffset": 25120,
      "componentType": 5126,
      "count": 1441,
      "max": [
        0.9700338244438171,
        0.9980080127716064
      ],
      "min": [
        0.001936195301823318,
        0.0019920319318771362
      ],
      "type": "VEC2"
    },
    {
      "bufferView": 0,
      "byteOffset": 35256,
      "componentType": 5125,
      "count": 3564,
      "type": "SCALAR"
    }
  ],
  "asset": {
    "extras": {
      "author": "chauhan bhautik (https://sketchfab.com/chauhan_b.b.s_)",
      "license": "SKETCHFAB Standard (https://sketchfab.com/licenses)",
      "source": "https://sketchfab.com/3d-models/parachute-bag-pubg-3b78fef6c0e44b17b6a52a0f9471f21f",
      "title": "Parachute bag/ pubg"
    },
    "generator": "Sketchfab-16.67.0",
    "version": "2.0"
  },
  "bufferViews": [
    {
      "buffer": 0,
      "byteLength": 49512,
      "name": "floatBufferViews",
      "target": 34963
    },
    {
      "buffer": 0,
      "byteLength": 36648,
      "byteOffset": 49512,
      "byteStride": 8,
      "name": "floatBufferViews",
      "target": 34962
    },
    {
      "buffer": 0,
      "byteLength": 109944,
      "byteOffset": 86160,
      "byteStride": 12,
      "name": "floatBufferViews",
      "target": 34962
    }
  ],
  "buffers": [
    {
      "byteLength": 196104,
      "uri": "scene.bin"
    }
  ],
  "images": [
    {
      "uri": "textures/pasted__lambert7_baseColor.jpeg"
    },
    {
      "uri": "textures/aiStandardSurface1_baseColor.jpeg"
    }
  ],
  "materials": [
    {
      "doubleSided": true,
      "name": "pasted__lambert7",
      "pbrMetallicRoughness": {
        "baseColorTexture": {
          "index": 0
        },
        "metallicFactor": 0.0,
        "roughnessFactor": 0.6
      }
    },
    {
      "doubleSided": true,
      "name": "aiStandardSurface1",
      "pbrMetallicRoughness": {
        "baseColorTexture": {
          "index": 1
        },
        "metallicFactor": 0.0,
        "roughnessFactor": 0.8909894940075052
      }
    }
  ],
  "meshes": [
    {
      "name": "pasted__polySurface1_pasted__lambert7_0",
      "primitives": [
        {
          "attributes": {
            "NORMAL": 1,
            "POSITION": 0,
            "TEXCOORD_0": 2
          },
          "indices": 3,
          "material": 0,
          "mode": 4
        }
      ]
    },
    {
      "name": "pasted__polySurface2_aiStandardSurface1_0",
      "primitives": [
        {
          "attributes": {
            "NORMAL": 5,
            "POSITION": 4,
            "TEXCOORD_0": 6
          },
          "indices": 7,
          "material": 1,
          "mode": 4
        }
      ]
    }
  ],
  "nodes": [
    {
      "children": [
        1
      ],
      "matrix": [
        1.0,
        0.0,
        0.0,
        0.0,
        0.0,
        2.220446049250313e-16,
        -1.0,
        0.0,
        0.0,
        1.0,
        2.220446049250313e-16,
        0.0,
        0.0,
        0.0,
        0.0,
        1.0
      ],
      "name": "Sketchfab_model"
    },
    {
      "children": [
        2
      ],
      "matrix": [
        0.009999999776482582,
        0.0,
        0.0,
        0.0,
        0.0,
        0.0,
        0.009999999776482582,
        0.0,
        0.0,
        -0.009999999776482582,
        0.0,
        0.0,
        0.0,
        0.0,
        0.0,
        1.0
      ],
      "name": "b9552f2ae677429797eccb6243fe07ec.fbx"
    },
    {
      "children": [
        3
      ],
      "name": "RootNode"
    },
    {
      "children": [
        4
      ],
      "name": "group"
    },
    {
      "children": [
        5,
        7
      ],
      "matrix": [
        1.0,
        0.0,
        0.0,
        0.0,
        0.0,
        1.0,
        0.0,
        0.0,
        0.0,
        0.0,
        1.0,
        0.0,
        0.0,
        19.625144958496094,
        -98.35125732421875,
        1.0
      ],
      "name": "pasted__group11"
    },
    {
      "children": [
        6
      ],
      "matrix": [
        1.0,
        0.0,
        0.0,
        0.0,
        0.0,
        1.0,
        0.0,
        0.0,
        0.0,
        0.0,
        1.0,
        0.0,
        0.0,
        -9.025444984436035,
        102.64520263671875,
        1.0
      ],
      "name": "pasted__polySurface1"
    },
    {
      "mesh": 0,
      "name": "pasted__polySurface1_pasted__lambert7_0"
    },
    {
      "children": [
        8
      ],
      "matrix": [
        1.0,
        0.0,
        0.0,
        0.0,
        0.0,
        1.0,
        0.0,
        0.0,
        0.0,
        0.0,
        1.0,
        0.0,
        0.0,
        -9.025444984436035,
        102.64520263671875,
        1.0
      ],
      "name": "pasted__polySurface2"
    },
    {
      "mesh": 1,
      "name": "pasted__polySurface2_aiStandardSurface1_0"
    }
  ],
  "samplers": [
    {
      "magFilter": 9729,
      "minFilter": 9987,
      "wrapS": 10497,
      "wrapT": 10497
    }
  ],
  "scene": 0,
  "scenes": [
    {
      "name": "Sketchfab_Scene",
      "nodes": [
        0
      ]
    }
  ],
  "textures": [
    {
      "sampler": 0,
      "source": 0
    },
    {
      "sampler": 0,
      "source": 1
    }
  ]
}
